# xmcd CD database file
#
# Track frame offsets:
#	150
#	26790
#	48953
#	65714
#	82762
#	105905
#	133329
#	151687
#	171122
#	190551
#	215422
#	238585
#	257523
#	277284
#	304875
#
# Disc length: 4271 seconds
#
# Revision: 1
# Processed by: cddbd v1.5PL3 Copyright (c) Steve Scherf et al.
# Submitted via: CDex 1.51
#
DISCID=c910ad0f
DTITLE=Simone - Moonlight Serenade
DYEAR=2004
DGENRE=Jazz
TTITLE0=Tea For Two
TTITLE1=Fragile
TTITLE2=L-O-V-E
TTITLE3=For No One
TTITLE4=Save Your Love For Me
TTITLE5=I've Grown Accustomed To His Face
TTITLE6=I'm Through With Love
TTITLE7=Autumn Leaves
TTITLE8=What A Diff'rence A Day Made
TTITLE9=The Nearness Of You
TTITLE10=Besame Mucho
TTITLE11=Like Someone In Love
TTITLE12=Peace
TTITLE13=Moonlight Serenade
TTITLE14=Stompin' At The Savoy
EXTD=YEAR: 2004
EXTT0=
EXTT1=
EXTT2=
EXTT3=
EXTT4=
EXTT5=
EXTT6=
EXTT7=
EXTT8=
EXTT9=
EXTT10=
EXTT11=
EXTT12=
EXTT13=
EXTT14=
PLAYORDER=
